<?xml version="1.0" encoding="UTF-8" standalone="no"?>
<!-- Created with Inkscape (http://www.inkscape.org/) -->

<svg
   xmlns:dc="http://purl.org/dc/elements/1.1/"
   xmlns:cc="http://creativecommons.org/ns#"
   xmlns:rdf="http://www.w3.org/1999/02/22-rdf-syntax-ns#"
   xmlns:svg="http://www.w3.org/2000/svg"
   xmlns="http://www.w3.org/2000/svg"
   xmlns:sodipodi="http://sodipodi.sourceforge.net/DTD/sodipodi-0.dtd"
   xmlns:inkscape="http://www.inkscape.org/namespaces/inkscape"
   width="142.4834mm"
   height="109.32069mm"
   viewBox="0 0 142.4834 109.32069"
   version="1.1"
   id="svg5160"
   inkscape:version="0.92.2 (5c3e80d, 2017-08-06)"
   sodipodi:docname="WoodBase.svg">
  <defs
     id="defs5154" />
  <sodipodi:namedview
     id="base"
     pagecolor="#ffffff"
     bordercolor="#666666"
     borderopacity="1.0"
     inkscape:pageopacity="0.0"
     inkscape:pageshadow="2"
     inkscape:zoom="0.98994949"
     inkscape:cx="383.24751"
     inkscape:cy="218.72948"
     inkscape:document-units="mm"
     inkscape:current-layer="layer1"
     showgrid="false"
     fit-margin-top="0"
     fit-margin-left="0"
     fit-margin-right="0"
     fit-margin-bottom="0"
     inkscape:window-width="1920"
     inkscape:window-height="1027"
     inkscape:window-x="-8"
     inkscape:window-y="-8"
     inkscape:window-maximized="1" />
  <metadata
     id="metadata5157">
    <rdf:RDF>
      <cc:Work
         rdf:about="">
        <dc:format>image/svg+xml</dc:format>
        <dc:type
           rdf:resource="http://purl.org/dc/dcmitype/StillImage" />
        <dc:title></dc:title>
      </cc:Work>
    </rdf:RDF>
  </metadata>
  <g
     inkscape:label="Layer 1"
     inkscape:groupmode="layer"
     id="layer1"
     transform="translate(10.76551,-61.667036)">
    <path
       style="opacity:1;vector-effect:none;fill:none;fill-opacity:1;fill-rule:evenodd;stroke:#0000ff;stroke-width:0.09999999;stroke-linecap:round;stroke-linejoin:round;stroke-miterlimit:4;stroke-dasharray:none;stroke-dashoffset:0;stroke-opacity:1"
       d="m 61.241895,138.20005 v 12.32893 h 3.10007 v 4.90048 h -3.10007 v 12.32898 h 4.049879 v 3.07475 h 4.899959 v -3.07475 h 50.000037 v 3.07475 h 4.89996 v -3.07475 h 4.04988 v -12.32898 h -3.10007 v -4.90048 h 3.10007 v -12.32893 z"
       id="rect4344"
       inkscape:connector-curvature="0"
       sodipodi:nodetypes="ccccccccccccccccccccc" />
    <path
       style="opacity:1;vector-effect:none;fill:none;fill-opacity:1;fill-rule:evenodd;stroke:#0000ff;stroke-width:0.09999999;stroke-linecap:round;stroke-linejoin:round;stroke-miterlimit:4;stroke-dasharray:none;stroke-dashoffset:0;stroke-opacity:1"
       d="m -10.71551,138.30455 v 12.329 h 3.1000707 v 4.90048 H -10.71551 v 12.32895 h 4.0498806 v 3.07475 h 4.899963 v -3.07475 H 48.23438 v 3.07475 h 4.899962 v -3.07475 h 4.049881 v -12.32895 h -3.100072 v -4.90048 h 3.100072 v -12.329 H 27.1845 v 12.15794 c 0,1.42455 -1.146889,2.57144 -2.571419,2.57144 h -2.75745 c -1.42453,0 -2.57142,-1.14689 -2.57142,-2.57144 v -12.15794 z"
       id="rect4344-9"
       inkscape:connector-curvature="0"
       sodipodi:nodetypes="cccccccccccccccccccccsssscc" />
    <path
       style="opacity:1;vector-effect:none;fill:none;fill-opacity:1;fill-rule:evenodd;stroke:#0000ff;stroke-width:0.09999999;stroke-linecap:round;stroke-linejoin:round;stroke-miterlimit:4;stroke-dasharray:none;stroke-dashoffset:0;stroke-opacity:1"
       d="m 131.66789,82.575196 h -3.10008 v 12.329481 h -14.40013 v 3.100081 H 109.2677 V 94.904677 H 94.86753 V 82.575196 h -3.10007 v -4.89995 h 3.10007 v -12.32897 h 5.34957 v -3.10007 h 4.90048 v 3.10007 h 4.9997 v 5.19969 h -1.39991 v 2.80034 h 1.39991 v 2.99982 h 3.20032 v -2.99982 h 1.39991 v -2.80034 h -1.39991 v -5.19969 h 5.0002 v -3.10007 h 4.89995 v 3.10007 h 5.35006 v 12.32897 h 3.10008 z"
       id="rect4467-1-4"
       inkscape:connector-curvature="0"
       sodipodi:nodetypes="ccccccccccccccccccccccccccccccccccccc" />
    <path
       inkscape:connector-curvature="0"
       style="opacity:1;vector-effect:none;fill:none;fill-opacity:1;fill-rule:evenodd;stroke:#0000ff;stroke-width:0.09999999;stroke-linecap:round;stroke-linejoin:round;stroke-miterlimit:4;stroke-dasharray:none;stroke-dashoffset:0;stroke-opacity:1"
       d="m 131.66789,120.55044 h -3.10005 v 12.32948 h -14.40011 v 3.10007 h -4.89997 v -3.10007 H 94.86757 V 120.55044 H 91.7675 v -4.89996 h 3.10007 v -12.32897 h 5.34956 v -3.10007 h 4.9005 v 3.10007 h 4.9997 v 5.19968 h -1.39991 v 2.80035 h 1.39991 v 2.99981 h 3.20032 v -2.99981 h 1.39992 v -2.80035 h -1.39992 v -5.19968 h 5.00021 v -3.10007 h 4.89995 v 3.10007 h 5.35003 v 12.32897 h 3.10005 z"
       id="rect4467-1-4-2"
       sodipodi:nodetypes="ccccccccccccccccccccccccccccccccccccc" />
    <path
       inkscape:connector-curvature="0"
       id="rect4361-9-1"
       style="opacity:1;vector-effect:none;fill:none;fill-opacity:1;fill-rule:evenodd;stroke:#0000ff;stroke-width:0.10000001;stroke-linecap:round;stroke-linejoin:round;stroke-miterlimit:4;stroke-dasharray:none;stroke-dashoffset:0;stroke-opacity:1"
       d="m 82.509222,74.796206 v -5.1 h 3.099983 v 5.1 z m 0,54.900004 v -5.10001 h 3.099983 v 5.10001 z M 45.709329,74.796206 v -5.1 h 3.099998 v 5.1 z m 0,54.900004 v -5.10001 h 3.099998 v 5.10001 z m -4.99999,-0.62362 V 70.319826 c 0,-4.47278 3.600831,-8.07362 8.07362,-8.07362 h 33.752634 c 4.472755,0 8.073577,3.60084 8.073577,8.07362 v 58.752764 c 0,4.47279 -3.600822,8.07362 -8.073577,8.07362 H 48.782959 c -4.472789,0 -8.07362,-3.60083 -8.07362,-8.07362 z m 27.399954,4.57341 h -4.89997 v -3.1 h 4.89997 z m 0,-64.699574 h -4.89997 v -3.1 h 4.89997 z" />
    <path
       id="path8202-2-1-6"
       style="opacity:1;vector-effect:none;fill:none;fill-opacity:1;fill-rule:evenodd;stroke:#0000ff;stroke-width:0.1;stroke-linecap:round;stroke-linejoin:round;stroke-miterlimit:4;stroke-dasharray:none;stroke-dashoffset:0;stroke-opacity:1"
       d="m 39.18449,69.790656 v 58.752764 c 0,4.47278 -3.600829,8.07362 -8.073621,8.07362 H -2.6418894 c -4.4727799,0 -8.0736206,-3.60084 -8.0736206,-8.07362 V 69.790656 c 0,-4.47279 3.6008407,-8.07362 8.0736206,-8.07362 H 31.110869 c 4.472792,0 8.073621,3.60083 8.073621,8.07362 z m -21.8,13.55532 V 114.9881 c 0,0.23373 -0.122219,0.42192 -0.27404,0.42192 h -5.75192 c -0.15182,0 -0.27404,-0.18819 -0.27404,-0.42192 V 83.345976 c 0,-0.23375 0.12223,-0.42192 0.27404,-0.42192 h 5.75192 c 0.151821,0 0.27404,0.18817 0.27404,0.42192 z m 3.400221,-18.02872 h 5.000001 v 3.1 h -5.000001 z m -18.1004405,0 h 5 v 3.1 h -5 z m 11.5502195,3.1 a 1.5500001,1.5500001 0 0 1 -1.55,-1.55 1.5500001,1.5500001 0 0 1 1.55,-1.55 1.5500001,1.5500001 0 0 1 1.550001,1.55 1.5500001,1.5500001 0 0 1 -1.550001,1.55 z m 6.550221,61.599574 h 5.000001 v 3.1 h -5.000001 z m -18.1004405,0 h 5 v 3.1 h -5 z m 11.5502195,3.1 a 1.55,1.55 0 0 1 -1.55,-1.55 1.55,1.55 0 0 1 1.55,-1.55 1.55,1.55 0 0 1 1.550001,1.55 1.55,1.55 0 0 1 -1.550001,1.55 z"
       inkscape:connector-curvature="0" />
    <text
       xml:space="preserve"
       style="font-style:normal;font-variant:normal;font-weight:normal;font-stretch:normal;font-size:9.21570587px;line-height:1.25;font-family:'Arial Rounded MT Bold';-inkscape-font-specification:'Arial Rounded MT Bold, ';letter-spacing:0px;word-spacing:0px;fill:#f30000;fill-opacity:1;stroke:none;stroke-width:0.26458332"
       x="14.826375"
       y="163.67609"
       id="text5723"><tspan
         sodipodi:role="line"
         id="tspan5721"
         x="14.826375"
         y="163.67609"
         style="font-style:normal;font-variant:normal;font-weight:normal;font-stretch:normal;font-family:Arial;-inkscape-font-specification:Arial;fill:#f30000;fill-opacity:1;stroke-width:0.26458332">side</tspan></text>
    <text
       xml:space="preserve"
       style="font-style:normal;font-variant:normal;font-weight:normal;font-stretch:normal;font-size:9.21570587px;line-height:1.25;font-family:'Arial Rounded MT Bold';-inkscape-font-specification:'Arial Rounded MT Bold, ';letter-spacing:0px;word-spacing:0px;fill:#f30000;fill-opacity:1;stroke:none;stroke-width:0.26458332"
       x="86.783768"
       y="163.67609"
       id="text5723-3"><tspan
         sodipodi:role="line"
         id="tspan5721-5"
         x="86.783768"
         y="163.67609"
         style="font-style:normal;font-variant:normal;font-weight:normal;font-stretch:normal;font-family:Arial;-inkscape-font-specification:Arial;fill:#f30000;fill-opacity:1;stroke-width:0.26458332">side</tspan></text>
    <text
       xml:space="preserve"
       style="font-style:normal;font-variant:normal;font-weight:normal;font-stretch:normal;font-size:9.21570587px;line-height:1.25;font-family:'Arial Rounded MT Bold';-inkscape-font-specification:'Arial Rounded MT Bold, ';letter-spacing:0px;word-spacing:0px;fill:#f30000;fill-opacity:1;stroke:none;stroke-width:0.26458332"
       x="103.30972"
       y="128.67102"
       id="text5723-36"><tspan
         sodipodi:role="line"
         id="tspan5721-2"
         x="103.30972"
         y="128.67102"
         style="font-style:normal;font-variant:normal;font-weight:normal;font-stretch:normal;font-family:Arial;-inkscape-font-specification:Arial;fill:#f30000;fill-opacity:1;stroke-width:0.26458332">side</tspan></text>
    <text
       xml:space="preserve"
       style="font-style:normal;font-variant:normal;font-weight:normal;font-stretch:normal;font-size:9.21570587px;line-height:1.25;font-family:'Arial Rounded MT Bold';-inkscape-font-specification:'Arial Rounded MT Bold, ';letter-spacing:0px;word-spacing:0px;fill:#f30000;fill-opacity:1;stroke:none;stroke-width:0.26458332"
       x="103.30969"
       y="91.183899"
       id="text5723-2"><tspan
         sodipodi:role="line"
         id="tspan5721-58"
         x="103.30969"
         y="91.183899"
         style="font-style:normal;font-variant:normal;font-weight:normal;font-stretch:normal;font-family:Arial;-inkscape-font-specification:Arial;fill:#f30000;fill-opacity:1;stroke-width:0.26458332">side</tspan></text>
    <text
       xml:space="preserve"
       style="font-style:normal;font-variant:normal;font-weight:normal;font-stretch:normal;font-size:9.21570587px;line-height:1.25;font-family:'Arial Rounded MT Bold';-inkscape-font-specification:'Arial Rounded MT Bold, ';letter-spacing:0px;word-spacing:0px;fill:#f30000;fill-opacity:1;stroke:none;stroke-width:0.26458332"
       x="51.565704"
       y="80.11116"
       id="text5723-4"><tspan
         sodipodi:role="line"
         id="tspan5721-9"
         x="51.565704"
         y="80.11116"
         style="font-style:normal;font-variant:normal;font-weight:normal;font-stretch:normal;font-family:Arial;-inkscape-font-specification:Arial;fill:#f30000;fill-opacity:1;stroke-width:0.26458332">bottom</tspan></text>
    <text
       xml:space="preserve"
       style="font-style:normal;font-variant:normal;font-weight:normal;font-stretch:normal;font-size:9.21570587px;line-height:1.25;font-family:'Arial Rounded MT Bold';-inkscape-font-specification:'Arial Rounded MT Bold, ';letter-spacing:0px;word-spacing:0px;fill:#f30000;fill-opacity:1;stroke:none;stroke-width:0.26458332"
       x="7.9324412"
       y="79.175194"
       id="text5723-7"><tspan
         sodipodi:role="line"
         id="tspan5721-96"
         x="7.9324412"
         y="79.175194"
         style="font-style:normal;font-variant:normal;font-weight:normal;font-stretch:normal;font-family:Arial;-inkscape-font-specification:Arial;fill:#f30000;fill-opacity:1;stroke-width:0.26458332">top</tspan></text>
  </g>
</svg>
