<?xml version="1.0" encoding="UTF-8" standalone="no"?>
<!-- Created with Inkscape (http://www.inkscape.org/) -->

<svg
   xmlns:dc="http://purl.org/dc/elements/1.1/"
   xmlns:cc="http://creativecommons.org/ns#"
   xmlns:rdf="http://www.w3.org/1999/02/22-rdf-syntax-ns#"
   xmlns:svg="http://www.w3.org/2000/svg"
   xmlns="http://www.w3.org/2000/svg"
   xmlns:sodipodi="http://sodipodi.sourceforge.net/DTD/sodipodi-0.dtd"
   xmlns:inkscape="http://www.inkscape.org/namespaces/inkscape"
   width="255.0051mm"
   height="126.73573mm"
   viewBox="0 0 255.0051 126.73573"
   version="1.1"
   id="svg8358"
   inkscape:version="0.92.4 (5da689c313, 2019-01-14)"
   sodipodi:docname="ButterflySixteenthInchAcrylic.svg">
  <defs
     id="defs8352" />
  <sodipodi:namedview
     id="base"
     pagecolor="#ffffff"
     bordercolor="#666666"
     borderopacity="1.0"
     inkscape:pageopacity="0.0"
     inkscape:pageshadow="2"
     inkscape:zoom="0.7"
     inkscape:cx="682.84461"
     inkscape:cy="81.314327"
     inkscape:document-units="mm"
     inkscape:current-layer="layer1"
     showgrid="false"
     fit-margin-top="0"
     fit-margin-left="0"
     fit-margin-right="0"
     fit-margin-bottom="0"
     inkscape:window-width="3840"
     inkscape:window-height="2004"
     inkscape:window-x="-16"
     inkscape:window-y="-16"
     inkscape:window-maximized="1"
     inkscape:snap-bbox="true"
     inkscape:bbox-nodes="true" />
  <metadata
     id="metadata8355">
    <rdf:RDF>
      <cc:Work
         rdf:about="">
        <dc:format>image/svg+xml</dc:format>
        <dc:type
           rdf:resource="http://purl.org/dc/dcmitype/StillImage" />
        <dc:title></dc:title>
      </cc:Work>
    </rdf:RDF>
  </metadata>
  <g
     inkscape:label="Layer 1"
     inkscape:groupmode="layer"
     id="layer1"
     transform="translate(18.645433,-145.94166)">
    <path
       id="path861-6"
       style="opacity:1;vector-effect:none;fill:none;fill-opacity:1;fill-rule:evenodd;stroke:#000000;stroke-width:0.1;stroke-linecap:round;stroke-linejoin:round;stroke-miterlimit:4;stroke-dasharray:none;stroke-dashoffset:0;stroke-opacity:1"
       d="m 186.6406,272.62739 v -6.08335 h 2.03709 c -1.3526,-9.34667 -0.30966,-6.06729 7.63466,-4.26491 2.92734,0.24928 7.12888,0.67423 11.47373,0.38395 4.31631,-0.28836 9.38888,-1.56035 12.97801,-4.33874 3.52965,-3.45782 4.5396,-7.50161 5.07928,-11.47837 0.54303,-4.00135 0.60786,-4.75539 0.97306,-7.48896 0.73364,-5.49085 0.28348,-11.69452 -2.54247,-17.04546 -0.56938,-1.07813 -1.31403,-1.91106 -2.10323,-2.59727 1.29094,-0.40496 2.73609,-1.07778 3.98168,-2.44222 5.10966,-5.59729 4.53347,-13.06631 5.24877,-17.01188 1.56218,-8.61689 1.18378,-16.88061 2.2288,-24.09983 0.39756,-2.74635 2.03544,-6.61926 2.24533,-11.58844 0.0633,-1.49907 0.44551,-4.03042 0.43411,-6.76186 -0.0114,-2.71792 -0.4353,-6.56306 -3.57085,-9.27644 -1.92463,-1.66549 -4.27794,-2.44692 -6.47919,-2.53162 -0.19476,-0.007 -0.38635,-0.0106 -0.57465,-0.0103 l 3e-5,-3e-5 c -5.89322,0.0104 -10.43508,3.51073 -12.76357,4.51446 -6.49408,2.79937 -11.38719,7.46064 -15.88172,10.97142 -5.25893,4.10786 -10.97064,8.37391 -16.04709,13.99192 -0.61308,0.67847 -1.10988,1.35513 -1.5937,2.0252 -0.38056,-0.52502 -0.79352,-1.04376 -1.28829,-1.53687 -1.74822,-1.74232 -4.28162,-5.25333 -7.28715,-5.3671 h -2.6e-4 c -0.1324,-0.005 -0.26498,-0.005 -0.39739,0 h -5.3e-4 c -3.00579,0.11377 -5.53919,3.62478 -7.28741,5.3671 -0.49477,0.49311 -0.90773,1.01185 -1.28829,1.53687 -0.48383,-0.67007 -0.98063,-1.34673 -1.5937,-2.0252 -5.07645,-5.61801 -10.78816,-9.88406 -16.04709,-13.99192 -4.49453,-3.51078 -9.38764,-8.17205 -15.88172,-10.97142 -2.32849,-1.00373 -6.87035,-4.5041 -12.76357,-4.51446 l 3e-5,3e-5 c -0.1883,-3.4e-4 -0.37989,0.003 -0.57465,0.0103 -2.20125,0.0847 -4.55456,0.86613 -6.47919,2.53162 -3.13555,2.71338 -3.55944,6.55852 -3.57085,9.27644 -0.0114,2.73144 0.37076,5.26279 0.43411,6.76186 0.20989,4.96918 1.84777,8.84209 2.24533,11.58844 1.04502,7.21922 0.66662,15.48294 2.2288,24.09983 0.7153,3.94557 0.13911,11.41459 5.24877,17.01188 1.24559,1.36444 2.69074,2.03726 3.98168,2.44222 -0.7892,0.68621 -1.53385,1.51914 -2.10323,2.59727 -2.82595,5.35094 -3.27611,11.55461 -2.54247,17.04546 0.3652,2.73357 0.43003,3.48761 0.97306,7.48896 0.53968,3.97676 1.54963,8.02055 5.07928,11.47837 3.58913,2.77839 8.6617,4.05038 12.97801,4.33874 4.34485,0.29028 8.54639,-0.13467 11.47373,-0.38395 7.94432,-1.80238 8.98726,-5.08176 7.63466,4.26491 h 2.03709 v 6.08335 h 16.01657 z m -14.96527,-97.69746 c -1e-5,0.5799 -0.4701,1.04999 -1.04999,1.04999 -0.57991,0 -1.05,-0.47009 -1.05001,-1.04999 0,-0.5799 0.4701,-1.05 1.05001,-1.05 0.57989,0 1.04999,0.4701 1.04999,1.05 z"
       inkscape:connector-curvature="0"
       sodipodi:nodetypes="cccccccccccscccccccsccccccccccccscccccccsccccccccccccccscsc" />
    <path
       id="path861-6-5"
       style="opacity:1;vector-effect:none;fill:none;fill-opacity:1;fill-rule:evenodd;stroke:#000000;stroke-width:0.1;stroke-linecap:round;stroke-linejoin:round;stroke-miterlimit:4;stroke-dasharray:none;stroke-dashoffset:0;stroke-opacity:1"
       d="m 31.073635,145.99166 v 6.08335 h -2.03709 c 1.3526,9.34667 0.30966,6.06729 -7.63466,4.26491 -2.92734,-0.24928 -7.128882,-0.67423 -11.4737347,-0.38395 -4.3163102,0.28836 -9.38888009,1.56035 -12.9780095,4.33874 -3.5296479,3.45782 -4.5395973,7.50161 -5.079277,11.47837 -0.5430297,4.00135 -0.6078597,4.75539 -0.9730594,7.48896 -0.7336397,5.49085 -0.28348,11.69452 2.5424685,17.04546 0.5693797,1.07813 1.3140294,1.91106 2.1032288,2.59727 -1.2909394,0.40496 -2.7360885,1.07778 -3.9816776,2.44222 -5.1096571,5.59729 -4.5334691,13.06631 -5.2487671,17.01188 -1.56218,8.61689 -1.18378,16.88061 -2.2288,24.09983 -0.39756,2.74635 -2.03544,6.61926 -2.24533,11.58844 -0.0633,1.49907 -0.44551,4.03042 -0.43411,6.76186 0.0114,2.71792 0.4353,6.56306 3.57085,9.27644 1.924628,1.66549 4.277938,2.44692 6.4791871,2.53162 0.1947597,0.007 0.3863497,0.0106 0.5746497,0.0103 l -3e-5,3e-5 c 5.8932167,-0.0104 10.4350763,-3.51073 12.7635664,-4.51446 6.4940808,-2.79937 11.3871938,-7.46064 15.8817248,-10.97142 5.25893,-4.10786 10.97064,-8.37391 16.04709,-13.99192 0.61308,-0.67847 1.10988,-1.35513 1.5937,-2.0252 0.38056,0.52502 0.79352,1.04376 1.28829,1.53687 1.74822,1.74232 4.28162,5.25333 7.28715,5.3671 h 2.6e-4 c 0.1324,0.005 0.26498,0.005 0.39739,0 h 5.3e-4 c 3.00579,-0.11377 5.53919,-3.62478 7.28741,-5.3671 0.49477,-0.49311 0.90773,-1.01185 1.28829,-1.53687 0.48383,0.67007 0.98063,1.34673 1.5937,2.0252 5.07645,5.61801 10.78816,9.88406 16.04709,13.99192 4.49453,3.51078 9.38764,8.17205 15.88172,10.97142 2.32849,1.00373 6.87035,4.5041 12.763585,4.51446 l -3e-5,-3e-5 c 0.1883,3.4e-4 0.37989,-0.003 0.57465,-0.0103 2.20126,-0.0847 4.55458,-0.86613 6.47923,-2.53162 3.13555,-2.71338 3.55944,-6.55852 3.57085,-9.27644 0.0114,-2.73144 -0.37076,-5.26279 -0.43411,-6.76186 -0.20989,-4.96918 -1.84777,-8.84209 -2.24533,-11.58844 -1.04502,-7.21922 -0.66662,-15.48294 -2.2288,-24.09983 -0.71532,-3.94557 -0.13911,-11.41459 -5.24881,-17.01188 -1.2456,-1.36444 -2.690755,-2.03726 -3.981695,-2.44222 0.7892,-0.68621 1.533845,-1.51914 2.103235,-2.59727 2.82596,-5.35094 3.27613,-11.55461 2.54248,-17.04546 -0.3652,-2.73357 -0.43003,-3.48761 -0.97306,-7.48896 -0.53969,-3.97676 -1.54964,-8.02055 -5.079295,-11.47837 -3.58913,-2.77839 -8.6617,-4.05038 -12.97801,-4.33874 -4.34485,-0.29028 -8.54639,0.13467 -11.47373,0.38395 -7.94432,1.80238 -8.98726,5.08176 -7.63466,-4.26491 h -2.03709 v -6.08335 h -16.01657 z m 14.96527,97.69746 c 1e-5,-0.5799 0.4701,-1.04999 1.04999,-1.04999 0.57991,0 1.05,0.47009 1.05001,1.04999 0,0.5799 -0.4701,1.05 -1.05001,1.05 -0.57989,0 -1.04999,-0.4701 -1.04999,-1.05 z"
       inkscape:connector-curvature="0"
       sodipodi:nodetypes="cccccccccccscccccccsccccccccccccscccccccsccccccccccccccscsc" />
  </g>
</svg>
