<?xml version="1.0" encoding="UTF-8" standalone="no"?>
<!-- Created with Inkscape (http://www.inkscape.org/) -->

<svg
   xmlns:dc="http://purl.org/dc/elements/1.1/"
   xmlns:cc="http://creativecommons.org/ns#"
   xmlns:rdf="http://www.w3.org/1999/02/22-rdf-syntax-ns#"
   xmlns:svg="http://www.w3.org/2000/svg"
   xmlns="http://www.w3.org/2000/svg"
   xmlns:sodipodi="http://sodipodi.sourceforge.net/DTD/sodipodi-0.dtd"
   xmlns:inkscape="http://www.inkscape.org/namespaces/inkscape"
   width="131.47389mm"
   height="185.62677mm"
   viewBox="0 0 131.47389 185.62677"
   version="1.1"
   id="svg7056"
   inkscape:version="0.92.2 (5c3e80d, 2017-08-06)"
   sodipodi:docname="ButterflyQuarterInchAcrylic.svg">
  <defs
     id="defs7050" />
  <sodipodi:namedview
     id="base"
     pagecolor="#ffffff"
     bordercolor="#666666"
     borderopacity="1.0"
     inkscape:pageopacity="0.0"
     inkscape:pageshadow="2"
     inkscape:zoom="0.35"
     inkscape:cx="-180.11683"
     inkscape:cy="319.36217"
     inkscape:document-units="mm"
     inkscape:current-layer="layer1"
     showgrid="false"
     fit-margin-top="0"
     fit-margin-left="0"
     fit-margin-right="0"
     fit-margin-bottom="0"
     inkscape:window-width="1920"
     inkscape:window-height="1027"
     inkscape:window-x="-8"
     inkscape:window-y="-8"
     inkscape:window-maximized="1" />
  <metadata
     id="metadata7053">
    <rdf:RDF>
      <cc:Work
         rdf:about="">
        <dc:format>image/svg+xml</dc:format>
        <dc:type
           rdf:resource="http://purl.org/dc/dcmitype/StillImage" />
        <dc:title></dc:title>
      </cc:Work>
    </rdf:RDF>
  </metadata>
  <g
     inkscape:label="Layer 1"
     inkscape:groupmode="layer"
     id="layer1"
     transform="translate(-3.0547199,-47.704477)">
    <g
       id="g4003"
       transform="translate(547.48507,-57.983663)">
      <path
         sodipodi:nodetypes="ccccccccccccccccccccccccccccccccccccccccccssssccscccssssccccccccccssssccscccsssscccccccc"
         inkscape:connector-curvature="0"
         d="m -476.86522,240.20397 -0.57669,-12.91793 v -11.24169 l -0.45778,-11.35724 h 0.92036 v -4.37847 h -0.91746 l -0.043,-12.2284 h 0.9605 v -4.37849 h -0.97618 l -7e-5,-12.22858 h 0.97618 v -4.37849 h -0.96049 l 0.0313,-12.22824 h 0.92888 v -4.37848 h -0.93499 l -0.009,-12.88159 h -1.53944 l -0.009,12.88159 h -0.93499 v 4.37848 h 0.92888 l 0.0313,12.22824 h -0.96048 v 4.37849 h 0.97618 l -7e-5,12.22858 h -0.97618 v 4.37849 h 0.9605 l -0.043,12.2284 h -0.91746 v 4.37847 h 0.92037 l -0.55886,11.43372 v 11.16521 l -0.47554,12.91793 m 1.8281,-102.76126 c -6.23161,-0.51815 -4.96329,13.05305 -6.63211,11.34373 -2.60682,-2.61277 -5.15639,-7.55541 -7.65014,-10.31519 -4.64042,-5.13546 -10.06875,-9.22161 -15.38089,-13.37103 -4.75358,-3.71312 -9.35872,-7.9736 -14.7217,-10.2854 -4.53084,-1.95309 -10.39996,-6.18807 -14.28225,-2.82849 -2.7319,2.36408 -1.48613,7.85693 -1.31836,11.82822 0.15965,3.77934 1.65722,7.326 2.19726,11.0568 1.14422,7.90453 0.77548,16.07099 2.19727,23.91357 0.89412,4.93194 0.80981,10.95414 3.95509,14.39956 2.42514,2.65658 11.47785,0.58696 12.11144,4.40298 0.76003,4.57761 -7.37067,2.68706 -9.46561,6.65383 -2.10799,3.99149 -2.59693,9.24934 -1.97754,13.88529 0.86529,6.47644 0.2203,12.74828 4.51544,16.95603 4.58325,4.48999 14.35225,3.50391 20.3137,2.99624 4.93393,-0.42017 6.74772,-0.36224 10.75751,-3.75276 2.52987,-2.13916 6.00536,-4.58081 8.02657,-5.96124 3.80931,-2.16799 2.27317,7.4312 7.35432,7.76119 m -57.08405,-78.68333 56.31487,23.53785 m -38.75521,16.6069 h 38.78653 m -0.0372,16.60698 -49.29185,7.2749 m 50.06693,-64.02663 c 6.2316,-0.51815 6.02163,13.05306 7.69044,11.34373 2.60682,-2.61277 4.09806,-7.55541 6.59181,-10.31519 4.64042,-5.13546 10.06875,-9.2216 15.38089,-13.37103 4.75358,-3.71312 9.35872,-7.9736 14.7217,-10.2854 4.53084,-1.95309 10.39996,-6.18807 14.28225,-2.82849 2.7319,2.36408 1.48613,7.85693 1.31836,11.82822 -0.15965,3.77934 -1.65722,7.326 -2.19726,11.05681 -1.14422,7.90452 -0.77548,16.07098 -2.19727,23.91356 -0.89412,4.93194 -0.80981,10.95413 -3.95509,14.39956 -2.42514,2.65658 -11.47785,0.58696 -12.11144,4.40298 -0.76003,4.57761 7.37067,2.68706 9.46561,6.65383 2.10799,3.99149 2.59693,9.24934 1.97754,13.88529 -0.86529,6.47644 -0.2203,12.74828 -4.51544,16.95603 -4.58325,4.48999 -14.35225,3.50391 -20.3137,2.99624 -4.93393,-0.42017 -6.74772,-3.00807 -10.75751,-6.39859 -2.59078,-2.19067 -6.17328,-2.05273 -8.17001,-3.41326 -3.5848,-1.78367 -2.21902,7.53485 -7.21088,7.85904 m 57.08405,-78.68333 -56.31487,23.53785 m 38.75521,16.6069 h -38.78653 m 0.0372,16.60698 49.29185,7.2749"
         style="opacity:1;vector-effect:none;fill:none;fill-opacity:1;fill-rule:evenodd;stroke:#000000;stroke-width:0.1;stroke-linecap:round;stroke-linejoin:round;stroke-miterlimit:4;stroke-dasharray:none;stroke-dashoffset:0;stroke-opacity:1"
         id="path10500-0" />
      <path
         sodipodi:nodetypes="cscsccccccccccccccccsccccccccccscccccccccccccccccccccccccc"
         inkscape:connector-curvature="0"
         d="m -477.64339,134.6764 c -10e-6,0.5799 -0.4701,1.04999 -1.05,1.04999 -0.5799,0 -1.04999,-0.47009 -1.05,-1.04999 0,-0.5799 0.4701,-1.05 1.05,-1.05 0.5799,0 1.05,0.4701 1.05,1.05 z m 49.09138,83.39442 c 3.52965,-3.45782 4.53959,-6.97243 5.07927,-10.9492 0.54302,-4.00134 0.60785,-5.28455 0.97307,-8.01812 0.7336,-5.49071 0.28405,-11.6944 -2.54196,-17.04547 -0.56945,-1.07824 -1.31443,-1.91106 -2.10375,-2.59725 1.29093,-0.40497 2.73608,-1.07777 3.98167,-2.44223 5.10967,-5.59728 4.53348,-13.06632 5.24877,-17.01188 1.56217,-8.61688 1.18379,-16.88061 2.22881,-24.09983 0.39753,-2.74626 2.03594,-6.62121 2.24585,-11.5905 0.0634,-1.4994 0.44502,-4.02863 0.43357,-6.7598 -0.0114,-2.71764 -0.43466,-6.56297 -3.57032,-9.27643 -1.92466,-1.66552 -4.27841,-2.44688 -6.47971,-2.53163 -2.1154,-0.0814 -3.99471,0.3974 -5.61051,0.96376 -3.23273,1.13315 -6.02162,2.80492 -7.7277,3.54036 -6.49409,2.79938 -11.38718,7.46064 -15.88171,10.97142 -5.25894,4.10786 -10.97065,8.37391 -16.04709,13.99191 -0.61341,0.67885 -1.1103,1.35585 -1.59421,2.02623 -0.38119,-0.52541 -0.79483,-1.04454 -1.28985,-1.53789 -1.74822,-1.74233 -4.28162,-5.25333 -7.28741,-5.3671 h -5.3e-4 c -0.1324,-0.005 -0.26498,-0.005 -0.39739,0 h -5.3e-4 c -3.00579,0.11377 -5.53919,3.62477 -7.28741,5.3671 -0.49477,0.49311 -0.90773,1.01184 -1.28829,1.53686 -0.48383,-0.67007 -0.98063,-1.34672 -1.5937,-2.0252 -5.07644,-5.618 -10.78815,-9.88405 -16.04709,-13.99191 -4.49452,-3.51078 -9.38763,-8.17205 -15.88171,-10.97142 -2.32849,-1.00373 -6.87035,-4.5041 -12.76357,-4.51446 l 3e-5,3e-5 c -0.1883,-3.4e-4 -0.37989,0.003 -0.57465,0.0103 -2.20125,0.0847 -4.55456,0.86613 -6.47919,2.53162 -3.13555,2.71338 -3.55944,6.55852 -3.57085,9.27644 -0.0114,2.73144 0.37076,5.26279 0.43411,6.76186 0.20989,4.96918 1.84777,8.84208 2.24533,11.58844 1.04502,7.21921 0.66662,15.48294 2.2288,24.09982 0.7153,3.94557 0.13911,11.4146 5.24877,17.01188 1.24559,1.36445 2.69074,2.03726 3.98168,2.44223 -0.7892,0.68621 -1.53385,1.51914 -2.10323,2.59726 -2.82595,5.35095 -3.27611,11.55461 -2.54247,17.04547 0.3652,2.73357 0.43003,4.01678 0.97306,8.01812 0.53967,3.97677 1.54962,7.49138 5.07927,10.9492 7.89844,6.10153 22.82484,5.26081 31.6645,1.96442 0,0 0.97291,-0.30146 0.87345,0.74046 -0.2336,2.45217 -0.45154,6.57315 -0.45154,6.57315 h 2.03709 v 9.6 c -2.52681,0.24422 -1.92291,3.36019 0,3.25513 h 32.03577 c 2.23907,-0.1016 2.20126,-3.17071 0,-3.3019 v -9.55323 h 2.03708 c 0,0 -0.29436,-5.72409 -0.56508,-8.23129 9.27749,5.20413 25.70305,5.4944 32.6515,-1.04673 z"
         style="opacity:1;vector-effect:none;fill:none;fill-opacity:1;fill-rule:evenodd;stroke:#000000;stroke-width:0.1;stroke-linecap:round;stroke-linejoin:round;stroke-miterlimit:4;stroke-dasharray:none;stroke-dashoffset:0;stroke-opacity:1"
         id="path10795" />
      <path
         sodipodi:nodetypes="cccccccccccccscccccsccccccscccccccccccccsccccccscccccsccccccccccccccccccccccccccccccccccccccccccccccccccccccccccccccccccccccccccccccccccccccccccccccccccccccccccccccccccccccccccccccccccccccccccccccccccccccccccccccccccccccccccccccccccccccccccccccccccccccccccccccccccccccccccccccccsccccccccccccccccccccccccccccccccccccccccccccccccccccccccccccccccccccccccccccccccccccccccccccccccccccccccccccccccccccccccccccccccccccccccaccccccccc"
         inkscape:connector-curvature="0"
         d="m -476.38082,214.542 c 0.64203,-0.69172 1.13141,-1.53613 1.60713,-2.60346 0.94432,-2.11859 1.72046,-4.99284 2.37815,-8.55503 0.38664,-2.09415 0.72211,-4.42894 1.00563,-6.92722 l 6.12675,4.71289 -1.19992,8.18502 c -2.89254,-2.11413 -5.49734,-3.82405 -5.49734,-3.82405 -0.21016,-0.13804 -0.43165,-0.22429 -0.65474,-0.27389 v 2.18385 c 1.03819,0.68943 5.81976,3.89514 9.1612,6.72052 3.97273,3.35918 5.77045,3.27702 10.65878,3.69331 5.90635,0.50301 15.58346,1.4802 20.12435,-2.96829 4.25544,-4.16886 3.61686,-10.35811 4.47415,-16.77469 0.61367,-4.59309 0.12997,-9.80167 -1.95854,-13.75626 -2.07558,-3.9301 -10.13226,-2.05757 -9.37927,-6.59288 0.62774,-3.78074 9.59706,-1.72948 11.99978,-4.36149 0.28164,-0.30852 0.53599,-0.63894 0.76843,-0.9865 h 0.14314 l -0.0925,-0.076 c 2.28914,-3.49897 2.29908,-8.79282 3.09904,-13.2054 1.40865,-7.77009 1.04348,-15.85962 2.17713,-23.69106 0.53505,-3.69633 2.01894,-7.21151 2.17712,-10.95592 0.16622,-3.93459 1.40027,-9.37644 -1.30638,-11.71866 -0.96159,-0.83213 -2.04671,-1.19419 -3.2029,-1.23869 -0.10839,-0.004 -0.21699,-0.005 -0.32659,-0.004 -3.39777,0.0399 -7.35852,2.64087 -10.62003,4.04679 -5.31341,2.29043 -9.87654,6.51075 -14.58619,10.18955 -5.26304,4.11107 -10.64134,8.15979 -15.23886,13.24777 -2.47071,2.73427 -3.94817,6.58188 -6.53087,9.1705 h -1.47588 v 0.71572 c -0.62438,-3.19173 -1.35163,-5.80029 -2.22364,-7.75663 -0.47572,-1.06732 -0.96509,-1.91222 -1.60713,-2.60397 -0.60539,-0.65226 -1.45565,-1.16368 -2.31252,-1.16376 -0.85687,8e-5 -1.70713,0.51149 -2.31252,1.16375 -0.64204,0.69176 -1.13141,1.53666 -1.60714,2.60398 -0.872,1.95634 -1.59926,4.5649 -2.22364,7.75663 v -0.71572 h -1.47587 c -2.5827,-2.58862 -4.06016,-6.43623 -6.53087,-9.1705 -4.59752,-5.08799 -9.97582,-9.1367 -15.23886,-13.24777 -4.70965,-3.67881 -9.27278,-7.89912 -14.58619,-10.18956 -3.26151,-1.40592 -7.22227,-4.00692 -10.62003,-4.04678 -0.10961,-0.001 -0.2182,-1e-4 -0.32659,0.004 -1.15619,0.0445 -2.24131,0.40655 -3.20291,1.23868 -2.70665,2.34222 -1.47259,7.78408 -1.30638,11.71867 0.15819,3.74441 1.64208,7.25959 2.17713,10.95592 1.13365,7.83144 0.76848,15.92097 2.17713,23.69106 0.79996,4.41258 0.80989,9.70642 3.09903,13.20539 l -0.0925,0.076 h 0.14315 c 0.23244,0.34756 0.48679,0.67798 0.76842,0.9865 2.40273,2.63201 11.37205,0.58075 11.99979,4.36149 0.75299,4.53531 -7.30369,2.66278 -9.37927,6.59288 -2.08851,3.95459 -2.57221,9.16317 -1.95854,13.75626 0.85729,6.41658 0.21871,12.60583 4.47415,16.77469 4.54089,4.44849 14.218,3.4713 20.12435,2.9683 4.88833,-0.41629 6.68605,-0.33414 10.65878,-3.69332 3.34144,-2.82538 8.12301,-6.03109 9.1612,-6.72052 v -2.18384 c -0.22309,0.0496 -0.44458,0.13584 -0.65474,0.27388 0,0 -2.6048,1.70993 -5.49734,3.82406 l -1.19993,-8.18503 6.12676,-4.71289 c 0.28352,2.49828 0.61898,4.83307 1.00562,6.92722 0.6577,3.56219 1.43383,6.43644 2.37815,8.55503 0.47573,1.06734 0.96511,1.91174 1.60714,2.60346 0.60539,0.65228 1.45565,1.16366 2.31252,1.16376 0.85687,-9e-5 1.70713,-0.51147 2.31252,-1.16375 z m 52.30688,-101.06307 c -0.61582,0.015 -1.33255,0.17992 -2.11305,0.43667 l -7.27501,18.18855 12.52069,-11.24531 c 0.084,-0.9823 0.15502,-1.94265 0.15141,-2.81998 -0.008,-1.92668 -0.3778,-3.20875 -1.0542,-3.79408 -0.62391,-0.53992 -1.20435,-0.7342 -2.00091,-0.76481 -0.0747,-0.003 -0.15105,-0.003 -0.22893,-10e-4 v 0 m -3.96978,1.15445 c -1.80016,0.77684 -3.78371,1.79958 -5.67407,2.62774 l -20.59203,19.62361 -11.06599,17.44132 13.50719,-5.69061 15.80937,-14.19862 8.01553,-19.80344 v 0 m -8.81445,4.23075 c -3.79028,2.24203 -7.41239,5.44214 -11.24272,8.43411 -0.084,0.0656 -0.16712,0.1308 -0.25115,0.19637 l -4.12327,6.49883 15.61714,-15.12931 v 0 m 15.6869,4.82193 -25.45685,22.74124 23.05028,-9.71155 c 0.0633,-0.51833 0.13164,-1.03689 0.2067,-1.55546 0.58327,-4.02922 2.02147,-7.47504 2.16008,-10.75645 0.01,-0.23726 0.0244,-0.47703 0.0398,-0.71778 v 0 m -31.02912,6.81819 c -3.8653,3.05312 -7.60888,6.18067 -10.89184,9.81387 -2.11911,2.34517 -3.59521,6.23159 -6.59856,9.24181 -0.007,0.006 -0.19553,0.26258 -0.56844,0.6072 -0.18647,0.17233 -0.43295,0.38737 -0.85731,0.56327 -0.28055,0.11626 -0.66901,0.18944 -1.06712,0.1695 0.3102,1.83813 0.5844,3.83434 0.82062,5.94899 l 3.58789,-1.51205 15.57476,-24.83259 v 0 m 28.32747,9.02994 -33.86976,14.8518 9.67434,2.90267 23.5226,-7.42849 c 0.22173,-3.38978 0.36063,-6.84642 0.67282,-10.32598 v 0 m -0.86418,12.85353 -19.37453,6.08283 17.80201,5.34076 c 0.24123,-1.64246 0.46507,-3.35271 0.76947,-5.03173 0.37861,-2.08841 0.62138,-4.22389 0.80305,-6.39186 v 0 m -35.58543,3.12177 -4.47466,1.96216 6.96133,7.05641 5.9707,2.39624 -0.0129,-0.0734 13.01264,-2.28513 -3.9734,-3.31143 -17.48369,-5.74487 v 0 m -7.39179,3.24167 0.88625,10.92026 0.0429,0.5271 3.42356,1.28002 10.36991,4.01733 11.52746,2.281 c 0.002,0.0161 0.007,0.0362 0.009,0.0527 l -17.28991,2.23397 -5.42395,-2.43344 -6.19394,1.6955 c -0.006,0.41421 -0.0212,1.195 -0.0398,1.97352 l 5.16919,-1.41438 35.30121,15.59698 c -0.0312,0.8017 -0.0982,1.59583 -0.20154,2.36937 -0.10963,0.82058 -0.19514,1.66577 -0.26923,2.52232 l -12.74393,-1.93683 -20.08611,-15.82436 -7.17062,-1.27744 c -0.0244,1.01149 -0.0567,2.01684 -0.0961,3.01481 l -0.0289,-0.002 0.0475,-3.02721 0.12299,-2.38693 0.002,-3.43804 h 0.009 c -0.005,-1.03443 -0.0211,-2.0655 -0.0516,-2.56418 l -0.0781,-3.63441 c -0.11394,-3.1347 -0.29956,-6.19559 -0.55448,-9.09143 z m -2.78536,25.59844 3.07268,0.14779 5.36814,11.06444 -9.09505,-1.38234 c 0.30052,-3.10316 0.5196,-6.4194 0.65423,-9.82989 z m 0.0971,-3.05047 c -2.7e-4,0.0119 -8e-4,0.0237 -10e-4,0.0357 l -0.0775,-0.0139 0.0786,-0.0217 v 0 m 5.50044,-19.58227 1.48725,6.08232 11.58844,5.38314 10.64121,2.28461 c 0.39904,-0.89572 1.11608,-0.53263 1.88826,-1.00459 l -20.04271,-7.37164 -5.56245,-5.37384 v 0 m 26.52913,1.00925 10.12393,8.34729 c 0.70279,-1.20411 1.14725,-2.77391 1.48932,-4.53151 l -11.61325,-3.81578 v 0 m 2.20452,4.08709 -11.11147,1.95182 11.48664,4.61005 c 0.45942,-0.0673 0.91976,-0.12057 1.37718,-0.17105 1.35151,-0.14918 2.67651,-0.26123 3.6959,-0.46457 0.51639,-0.10302 0.9269,-0.24087 1.22214,-0.36742 l -6.67039,-5.55883 v 0 m -4.59249,13.48444 -13.55731,1.75184 0.79789,0.35811 8.32094,3.73259 8.739,-2.9838 c -1.12342,-0.30352 -2.30721,-0.6096 -3.4091,-1.45572 -0.33788,-0.25945 -0.63903,-0.7915 -0.89142,-1.40302 v 0 m 7.00061,3.64629 -9.6883,3.01429 13.50667,6.31021 c -0.13416,-2.90168 -0.7583,-5.76137 -1.94355,-8.00571 -0.24538,-0.46467 -0.6869,-0.81888 -1.495,-1.16841 -0.1199,-0.0519 -0.2481,-0.10164 -0.37982,-0.15038 v 0 m -30.0607,1.46296 3.88969,10.47792 12.16153,1.84846 -16.05122,-12.32638 v 0 m -5.10511,11.28148 5.27151,3.87884 0.77153,1.67121 6.04253,12.26798 -1.38131,-0.99736 c 0.30172,0.24922 0.59606,0.48205 0.8847,0.68834 1.35452,0.96819 2.57747,1.52992 4.7041,1.711 2.96983,0.25291 6.77197,0.6038 10.27896,0.36949 0.83215,-0.0556 1.63922,-0.14831 2.41122,-0.2775 l -22.11699,-18.2888 -6.86625,-1.0232 v 0 m 10.5885,1.15239 10.23968,8.52971 v -0.22117 l 17.19275,-2.05828 c 0.14101,-1.41449 0.23979,-0.22853 0.34417,-1.68413 l -27.7766,-4.56613 v 0 m -6.2761,3.82767 0.18758,0.31264 h 0.21859 l -0.40617,-0.31264 v 0 m 0.77721,2.35335 -1.649,6.0513 3.28973,2.59467 3.10885,1.70636 -4.74958,-10.35233 v 0 m 32.77164,1.47381 -15.8936,1.92959 8.76019,8.10958 -0.20309,0.14211 c 1.8071,-0.46199 3.32996,-1.17594 4.36253,-2.18746 1.60025,-1.56769 2.48614,-4.36849 2.94297,-7.73441 0.0116,-0.0852 0.0199,-0.17367 0.031,-0.25941 v 0 m -102.24794,-92.01679 c 0.61581,0.015 1.33254,0.17992 2.11304,0.43667 l 7.27501,18.18855 -12.52068,-11.24531 c -0.084,-0.9823 -0.15502,-1.94265 -0.15141,-2.81998 0.008,-1.92668 0.3778,-3.20875 1.0542,-3.79409 0.62391,-0.53991 1.20435,-0.7342 2.00091,-0.7648 0.0747,-0.003 0.15105,-0.003 0.22893,-0.001 v 0 m 3.96978,1.15445 c 1.80016,0.77684 3.78371,1.79957 5.67407,2.62774 l 20.59203,19.62361 11.06599,17.44132 -13.50719,-5.69061 -15.80937,-14.19862 -8.01553,-19.80344 v 0 m 8.81445,4.23075 c 3.79028,2.24203 7.41238,5.44214 11.24272,8.43411 0.084,0.0656 0.16712,0.1308 0.25115,0.19637 l 4.12326,6.49883 -15.61713,-15.12931 v 0 m -15.6869,4.82193 25.45684,22.74124 -23.05027,-9.71155 c -0.0633,-0.51833 -0.13164,-1.03689 -0.2067,-1.55546 -0.58327,-4.02922 -2.02147,-7.47504 -2.16008,-10.75645 -0.01,-0.23726 -0.0244,-0.47703 -0.0398,-0.71778 v 0 m 31.02911,6.81818 c 3.8653,3.05312 7.60888,6.18068 10.89185,9.81388 2.1191,2.34517 3.59521,6.23159 6.59856,9.24181 0.007,0.006 0.19553,0.26258 0.56844,0.6072 0.18647,0.17233 0.43295,0.38737 0.85731,0.56327 0.28055,0.11626 0.66901,0.18944 1.06712,0.1695 -0.3102,1.83813 -0.5844,3.83434 -0.82062,5.94899 l -3.5879,-1.51205 -15.57476,-24.8326 v 0 m -28.32747,9.02995 33.86977,14.8518 -9.67434,2.90267 -23.5226,-7.42849 c -0.22173,-3.38978 -0.36064,-6.84641 -0.67283,-10.32598 v 0 m 0.8642,12.85362 19.37453,6.08283 -17.80202,5.34076 c -0.24122,-1.64246 -0.46506,-3.35272 -0.76946,-5.03174 -0.37861,-2.08841 -0.62138,-4.22388 -0.80305,-6.39185 v 0 m 35.58542,3.12177 4.47467,1.96215 -6.96134,7.05642 -5.97069,2.39623 0.0129,-0.0734 -13.01264,-2.28513 3.9734,-3.31142 17.48369,-5.74487 v 0 m 7.39179,3.24166 -0.88625,10.92027 -0.0429,0.5271 -3.42357,1.28002 -10.36991,4.01733 -11.52746,2.281 c -0.002,0.0161 -0.007,0.0363 -0.009,0.0527 l 17.2899,2.23397 5.42396,-2.43345 6.19394,1.69551 c 0.006,0.41421 0.0212,1.19499 0.0398,1.97352 l -5.1692,-1.41438 -35.3012,15.59698 c 0.0312,0.8017 0.0982,1.59582 0.20154,2.36936 0.10963,0.82058 0.19514,1.66578 0.26923,2.52233 l 12.74393,-1.93683 20.08611,-15.82436 7.17062,-1.27744 c 0.0244,1.01149 0.0567,2.01684 0.0961,3.0148 l 0.0289,-0.002 -0.0475,-3.0272 -0.123,-2.38694 -0.002,-3.43803 h -0.009 c 0.005,-1.03443 0.0211,-2.06551 0.0517,-2.56418 l 0.0781,-3.63441 c 0.11394,-3.1347 0.29957,-6.19559 0.55449,-9.09143 z m 2.78536,25.59844 -3.07268,0.14779 -5.36815,11.06445 9.09505,-1.38235 c -0.30051,-3.10315 -0.5196,-6.4194 -0.65422,-9.82989 z m -0.0971,-3.05046 c 2.6e-4,0.0119 7.9e-4,0.0237 0.001,0.0357 l 0.0775,-0.014 -0.0786,-0.0217 v 0 m -5.50043,-19.58227 -1.48725,6.08231 -11.58844,5.38314 -10.64121,2.28461 c -0.39904,-0.89572 -1.11608,-0.53263 -1.88826,-1.00458 l 20.0427,-7.37165 5.56246,-5.37383 v 0 m -26.52914,1.00924 -10.12392,8.34729 c -0.70279,-1.2041 -1.14725,-2.7739 -1.48932,-4.5315 l 11.61324,-3.81579 v 0 m -2.20451,4.08709 11.11146,1.95182 -11.48663,4.61005 c -0.45942,-0.0673 -0.91976,-0.12057 -1.37718,-0.17105 -1.35151,-0.14918 -2.67652,-0.26123 -3.6959,-0.46457 -0.5164,-0.10302 -0.92691,-0.24087 -1.22215,-0.36742 l 6.6704,-5.55883 v 0 m 4.59248,13.48445 13.55732,1.75183 -0.79789,0.35812 -8.32094,3.73259 -8.739,-2.9838 c 1.12342,-0.30352 2.30721,-0.60961 3.40909,-1.45573 0.33789,-0.25945 0.63904,-0.79149 0.89142,-1.40301 v 0 m -7.0006,3.64629 9.6883,3.01428 -13.50667,6.31021 c 0.13416,-2.90168 0.7583,-5.76137 1.94355,-8.00571 0.24538,-0.46467 0.6869,-0.81887 1.495,-1.1684 0.1199,-0.0519 0.2481,-0.10164 0.37982,-0.15038 v 0 m 30.06069,1.46296 -3.88968,10.47791 -12.16153,1.84846 16.05121,-12.32637 v 0 m 5.10512,11.28148 -5.27151,3.87883 -0.77153,1.67122 -6.04253,12.26798 1.38131,-0.99735 c -0.30172,0.24921 -0.59607,0.48204 -0.8847,0.68833 -1.35453,0.96819 -2.57747,1.52992 -4.7041,1.711 -2.96983,0.25291 -6.77197,0.6038 -10.27896,0.36949 -0.83215,-0.0556 -1.63922,-0.1483 -2.41122,-0.2775 l 22.11699,-18.28881 6.86625,-1.02319 v 0 m -10.5885,1.15238 -10.23969,8.52971 v -0.22117 l -17.19275,-2.05827 c -0.14101,-1.41449 -0.23978,-0.22854 -0.34416,-1.68414 l 27.7766,-4.56613 v 0 m 6.2761,3.82768 -0.18759,0.31264 h -0.21859 l 0.40618,-0.31264 v 0 m -0.77721,2.35334 1.64899,6.05131 -3.28972,2.59468 -3.10885,1.70635 4.74958,-10.35234 v 0 m -32.77165,1.47381 15.89361,1.9296 -8.76019,8.10958 0.20309,0.14211 c -1.8071,-0.46199 -3.32997,-1.17594 -4.36253,-2.18746 -1.60025,-1.56769 -2.48614,-4.36849 -2.94297,-7.73441 -0.0116,-0.0852 -0.0199,-0.17368 -0.031,-0.25942 v 0"
         style="opacity:1;vector-effect:none;fill:#ff00ff;fill-opacity:1;fill-rule:evenodd;stroke:#ff00ff;stroke-width:0.10000002;stroke-linecap:round;stroke-linejoin:round;stroke-miterlimit:4;stroke-dasharray:none;stroke-dashoffset:0;stroke-opacity:1"
         id="path2440-7" />
    </g>
    <path
       id="path8202-2-1-2"
       style="opacity:1;vector-effect:none;fill:none;fill-opacity:1;fill-rule:evenodd;stroke:#000000;stroke-width:0.1;stroke-linecap:round;stroke-linejoin:round;stroke-miterlimit:4;stroke-dasharray:none;stroke-dashoffset:0;stroke-opacity:1"
       d="m 39.415283,183.38124 h 58.752772 c 4.472775,0 8.073615,3.60083 8.073615,8.07362 v 33.75276 c 0,4.47279 -3.60084,8.07362 -8.073615,8.07362 H 39.415283 c -4.472789,0 -8.073628,-3.60083 -8.073628,-8.07362 v -33.75276 c 0,-4.47279 3.600828,-8.07362 8.073628,-8.07362 z m 63.326167,24.95 a 1.55,1.55 0 0 1 -1.54999,1.55 1.55,1.55 0 0 1 -1.549996,-1.55 1.55,1.55 0 0 1 1.549996,-1.55 1.55,1.55 0 0 1 1.54999,1.55 z m -64.699566,0 a 1.5500001,1.5500001 0 0 1 -1.550011,1.55 1.5500001,1.5500001 0 0 1 -1.549998,-1.55 1.5500001,1.5500001 0 0 1 1.549998,-1.55 1.5500001,1.5500001 0 0 1 1.550011,1.55 z m 14.92872,-4.65 h 31.64213 c 0.23374,0 0.42192,0.18042 0.42192,0.40453 v 8.49093 c 0,0.22411 -0.18818,0.40454 -0.42192,0.40454 h -31.64213 c -0.233751,0 -0.421931,-0.18043 -0.421931,-0.40454 v -8.49093 c 0,-0.22411 0.18818,-0.40453 0.421931,-0.40453 z"
       inkscape:connector-curvature="0" />
  </g>
</svg>
