<?xml version="1.0" encoding="UTF-8" standalone="no"?>
<!-- Created with Inkscape (http://www.inkscape.org/) -->

<svg
   xmlns:dc="http://purl.org/dc/elements/1.1/"
   xmlns:cc="http://creativecommons.org/ns#"
   xmlns:rdf="http://www.w3.org/1999/02/22-rdf-syntax-ns#"
   xmlns:svg="http://www.w3.org/2000/svg"
   xmlns="http://www.w3.org/2000/svg"
   xmlns:sodipodi="http://sodipodi.sourceforge.net/DTD/sodipodi-0.dtd"
   xmlns:inkscape="http://www.inkscape.org/namespaces/inkscape"
   width="164.45593mm"
   height="136.73637mm"
   viewBox="0 0 164.45593 136.73637"
   version="1.1"
   id="svg8927"
   inkscape:version="0.92.2 (5c3e80d, 2017-08-06)"
   sodipodi:docname="TreeSixteenthInchAcrylic.svg">
  <defs
     id="defs8921" />
  <sodipodi:namedview
     id="base"
     pagecolor="#ffffff"
     bordercolor="#666666"
     borderopacity="1.0"
     inkscape:pageopacity="0.0"
     inkscape:pageshadow="2"
     inkscape:zoom="0.35"
     inkscape:cx="-203.50285"
     inkscape:cy="381.25658"
     inkscape:document-units="mm"
     inkscape:current-layer="layer1"
     showgrid="false"
     inkscape:window-width="1920"
     inkscape:window-height="1027"
     inkscape:window-x="-8"
     inkscape:window-y="-8"
     inkscape:window-maximized="1"
     fit-margin-top="0"
     fit-margin-left="0"
     fit-margin-right="0"
     fit-margin-bottom="0" />
  <metadata
     id="metadata8924">
    <rdf:RDF>
      <cc:Work
         rdf:about="">
        <dc:format>image/svg+xml</dc:format>
        <dc:type
           rdf:resource="http://purl.org/dc/dcmitype/StillImage" />
        <dc:title></dc:title>
      </cc:Work>
    </rdf:RDF>
  </metadata>
  <g
     inkscape:label="Layer 1"
     inkscape:groupmode="layer"
     id="layer1"
     transform="translate(-9.2422731,-112.9711)">
    <path
       style="opacity:1;vector-effect:none;fill:none;fill-opacity:1;fill-rule:evenodd;stroke:#000000;stroke-width:0.1;stroke-linecap:round;stroke-linejoin:round;stroke-miterlimit:4;stroke-dasharray:none;stroke-dashoffset:0;stroke-opacity:1"
       d="m 124.47652,121.18143 c -1.07054,0.008 -2.04872,0.60784 -2.54093,1.55856 l -2.8298,5.46272 -5.95519,0.94722 c -2.36093,0.37572 -3.26679,3.29511 -1.53324,4.94131 l 4.33203,4.11137 -0.93172,5.89887 c -0.3708,2.35755 2.11804,4.12023 4.21886,2.98793 l 0.23565,-0.12713 -13.31909,15.72514 c -0.9696,0.87253 -1.52332,2.11557 -1.52342,3.41995 v 3.20497 c 8e-4,0.33111 0.0374,0.66117 0.10904,0.98444 l -11.308867,10.40401 c -1.12481,0.8714 -1.78321,2.21414 -1.78335,3.63699 v 3.00395 c 0.0021,1.11688 0.410432,2.19486 1.14876,3.03289 l -7.789188,5.76192 c -1.173271,0.86759 -1.865471,2.2403 -1.865511,3.69952 v 4.80643 c 0.0021,1.33252 0.582509,2.59852 1.59008,3.47058 l -8.21449,6.83783 c -0.752099,0.84297 -1.167781,1.93315 -1.167881,3.06286 v 4.00544 c -2.65e-4,2.54164 2.060162,4.07292 4.601781,4.07262 h 34.978746 v 9.75652 h -0.47491 c -7.70604,0 -8.01088,8.19743 -8.01088,8.19743 h 2.03708 v 5.6117 h 32.03577 v -5.6117 h 2.03709 c 0,0 -0.30483,-8.19743 -8.01088,-8.19743 h -0.47439 v -9.75652 h 34.97874 c 2.54162,0 4.60208,-1.53098 4.60179,-4.07262 v -4.00544 c -1e-4,-1.12971 -0.41579,-2.21989 -1.16789,-3.06286 l -8.21449,-6.83783 c 1.00738,-0.87215 1.58722,-2.13815 1.58957,-3.47058 v -4.80643 c 8e-5,-1.45913 -0.69192,-2.83182 -1.865,-3.69952 l -7.78919,-5.76192 c 0.73832,-0.83803 1.14664,-1.91601 1.14877,-3.03289 v -3.00395 c -1.3e-4,-1.42285 -0.65854,-2.76559 -1.78335,-3.63699 l -11.30939,-10.40401 c 0.0718,-0.32325 0.10856,-0.65331 0.10955,-0.98444 v -3.20497 c -1e-4,-1.30438 -0.55382,-2.54742 -1.52342,-3.41995 l -13.32218,-15.72824 0.24236,0.13023 c 2.10029,1.1296 4.58632,-0.63195 4.2168,-2.98793 l -0.93121,-5.89887 4.32996,-4.11137 c 1.73356,-1.6462 0.8277,-4.56559 -1.53324,-4.94131 l -5.95519,-0.94722 -2.8298,-5.46272 c -0.49937,-0.96458 -1.49818,-1.56694 -2.58434,-1.55856 z m 0.0217,23.17585 c 0.57995,-4e-5 1.05011,0.47011 1.05007,1.05006 -2.5e-4,0.57975 -0.47032,1.04959 -1.05007,1.04955 -0.57974,4e-5 -1.04981,-0.4698 -1.05006,-1.04955 -4e-5,-0.57995 0.47011,-1.0501 1.05006,-1.05006 z"
       id="path1956-3"
       inkscape:connector-curvature="0"
       sodipodi:nodetypes="cccccccccccccccccccccccccccsccccccsccsccccccccccccccccccccccccccccc" />
    <path
       style="opacity:1;vector-effect:none;fill:none;fill-opacity:1;fill-rule:evenodd;stroke:#000000;stroke-width:0.1;stroke-linecap:round;stroke-linejoin:round;stroke-miterlimit:4;stroke-dasharray:none;stroke-dashoffset:0;stroke-opacity:1"
       d="m 58.463954,241.49714 c 1.070539,-0.008 2.048719,-0.60784 2.540929,-1.55856 l 2.8298,-5.46272 5.955192,-0.94722 c 2.36093,-0.37572 3.266789,-3.29511 1.533239,-4.94131 l -4.332031,-4.11137 0.93172,-5.89887 c 0.3708,-2.35755 -2.11804,-4.12023 -4.218858,-2.98793 l -0.235651,0.12713 13.31909,-15.72515 c 0.9696,-0.87252 1.52332,-2.11556 1.523421,-3.41994 v -3.20498 c -7.94e-4,-0.3311 -0.0374,-0.66117 -0.10904,-0.98443 l 11.308868,-10.40402 c 1.12481,-0.8714 1.78321,-2.21413 1.78335,-3.63698 v -3.00395 c -0.0021,-1.11688 -0.410429,-2.19487 -1.14876,-3.03289 l 7.789191,-5.76192 c 1.173271,-0.86759 1.865471,-2.24031 1.865511,-3.69953 v -4.80642 c -0.0021,-1.33253 -0.58251,-2.59852 -1.59008,-3.47059 l 8.214495,-6.83782 c 0.75209,-0.84297 1.16777,-1.93315 1.16787,-3.06286 v -4.00544 c 2.7e-4,-2.54164 -2.06016,-4.07292 -4.60178,-4.07262 H 68.011684 v -9.75652 h 0.474909 c 7.70605,0 8.010879,-8.19743 8.010879,-8.19743 h -2.03708 v -5.6117 H 42.424624 v 5.6117 h -2.037091 c 0,0 0.304829,8.19743 8.01088,8.19743 h 0.47439 v 9.75652 h -34.97875 c -2.54161,0 -4.6020799,1.53098 -4.6017799,4.07262 v 4.00544 c 1e-4,1.12971 0.41579,2.21989 1.1678799,3.06286 l 8.2145,6.83782 c -1.00738,0.87216 -1.58722,2.13815 -1.58957,3.47059 v 4.80642 c -8e-5,1.45913 0.69192,2.83182 1.865,3.69953 l 7.78919,5.76192 c -0.73832,0.83802 -1.14664,1.91601 -1.14877,3.03289 v 3.00395 c 1.3e-4,1.42285 0.65854,2.76558 1.78335,3.63698 l 11.309391,10.40402 c -0.0718,0.32325 -0.108562,0.65331 -0.109551,0.98443 v 3.20498 c 1e-4,1.30438 0.55382,2.54742 1.52342,3.41994 l 13.322181,15.72825 -0.242361,-0.13023 c -2.100289,-1.1296 -4.586319,0.63195 -4.216799,2.98793 l 0.931209,5.89887 -4.329959,4.11137 c -1.733561,1.6462 -0.827702,4.56559 1.533239,4.94131 l 5.955191,0.94722 2.829799,5.46272 c 0.499371,0.96458 1.498181,1.56694 2.584341,1.55856 z m -0.0217,-23.17585 c -0.57994,4e-5 -1.05011,-0.47011 -1.05007,-1.05006 2.51e-4,-0.57975 0.47032,-1.04959 1.05007,-1.04955 0.57975,-4e-5 1.049822,0.4698 1.05006,1.04955 5e-5,0.57995 -0.470109,1.0501 -1.05006,1.05006 z"
       id="path1956-3-2"
       inkscape:connector-curvature="0"
       sodipodi:nodetypes="cccccccccccccccccccccccccccsccccccsccsccccccccccccccccccccccccccccc" />
  </g>
</svg>
