<?xml version="1.0" encoding="UTF-8" standalone="no"?>
<!-- Created with Inkscape (http://www.inkscape.org/) -->

<svg
   xmlns:dc="http://purl.org/dc/elements/1.1/"
   xmlns:cc="http://creativecommons.org/ns#"
   xmlns:rdf="http://www.w3.org/1999/02/22-rdf-syntax-ns#"
   xmlns:svg="http://www.w3.org/2000/svg"
   xmlns="http://www.w3.org/2000/svg"
   xmlns:sodipodi="http://sodipodi.sourceforge.net/DTD/sodipodi-0.dtd"
   xmlns:inkscape="http://www.inkscape.org/namespaces/inkscape"
   width="98.262337mm"
   height="187.40955mm"
   viewBox="0 0 98.262337 187.40955"
   version="1.1"
   id="svg7711"
   inkscape:version="0.92.2 (5c3e80d, 2017-08-06)"
   sodipodi:docname="TreeQuarterInchAcrylic.svg">
  <defs
     id="defs7705" />
  <sodipodi:namedview
     id="base"
     pagecolor="#ffffff"
     bordercolor="#666666"
     borderopacity="1.0"
     inkscape:pageopacity="0.0"
     inkscape:pageshadow="2"
     inkscape:zoom="0.35"
     inkscape:cx="-108.59309"
     inkscape:cy="408.44548"
     inkscape:document-units="mm"
     inkscape:current-layer="layer1"
     showgrid="false"
     fit-margin-top="0"
     fit-margin-left="0"
     fit-margin-right="0"
     fit-margin-bottom="0"
     inkscape:window-width="1920"
     inkscape:window-height="1027"
     inkscape:window-x="-8"
     inkscape:window-y="-8"
     inkscape:window-maximized="1" />
  <metadata
     id="metadata7708">
    <rdf:RDF>
      <cc:Work
         rdf:about="">
        <dc:format>image/svg+xml</dc:format>
        <dc:type
           rdf:resource="http://purl.org/dc/dcmitype/StillImage" />
        <dc:title></dc:title>
      </cc:Work>
    </rdf:RDF>
  </metadata>
  <g
     inkscape:label="Layer 1"
     inkscape:groupmode="layer"
     id="layer1"
     transform="translate(15.86927,-69.491654)">
    <path
       id="path8202-2-1"
       style="opacity:1;vector-effect:none;fill:none;fill-opacity:1;fill-rule:evenodd;stroke:#000000;stroke-width:0.1;stroke-linecap:round;stroke-linejoin:round;stroke-miterlimit:4;stroke-dasharray:none;stroke-dashoffset:0;stroke-opacity:1"
       d="M 3.8855048,206.9512 H 62.638276 c 4.472781,0 8.07362,3.60083 8.07362,8.07362 v 33.75276 c 0,4.47279 -3.600839,8.07362 -8.07362,8.07362 H 3.8855048 c -4.47279004,0 -8.07363,-3.60083 -8.07363,-8.07362 v -33.75276 c 0,-4.47279 3.60082996,-8.07362 8.07363,-8.07362 z m 63.3261712,24.95 a 1.55,1.55 0 0 1 -1.54999,1.55 1.55,1.55 0 0 1 -1.550001,-1.55 1.55,1.55 0 0 1 1.550001,-1.55 1.55,1.55 0 0 1 1.54999,1.55 z m -64.6995712,0 a 1.5500001,1.5500001 0 0 1 -1.55001004,1.55 1.5500001,1.5500001 0 0 1 -1.55,-1.55 1.5500001,1.5500001 0 0 1 1.55,-1.55 1.5500001,1.5500001 0 0 1 1.55001004,1.55 z m 14.9287202,-4.65 h 31.64213 c 0.233741,0 0.42192,0.18042 0.42192,0.40453 v 8.49093 c 0,0.22411 -0.188179,0.40454 -0.42192,0.40454 h -31.64213 c -0.233748,0 -0.421931,-0.18043 -0.421931,-0.40454 v -8.49093 c 0,-0.22411 0.188183,-0.40453 0.421931,-0.40453 z"
       inkscape:connector-curvature="0" />
    <g
       transform="translate(626.82342,-34.942866)"
       id="g7654">
      <path
         sodipodi:nodetypes="ccccccccsccccccccsscccccccccccccscccccccccccc"
         inkscape:connector-curvature="0"
         d="m -594.22781,187.22633 -0.0587,6.2736 h -0.91746 v 4.37847 h 0.92037 l -0.0738,6.72398 h -44.2657 c -0.5868,-0.59246 -0.64563,-3.39893 0.9631,-4.90865 2.38261,-2.2361 8.53553,-8.02594 10.96865,-10.46073 1.10867,-1.10943 -0.40188,-2.16925 -0.90545,-1.97557 m 33.36901,-17.33149 v 6.96709 h -0.97618 v 4.37849 h 0.97618 v 5.95481 h -29.54122 c 0,0 -2.26131,0.0238 -3.82779,0.0311 -1.20961,0.006 -2.49108,0.001 -3.23412,-0.0311 -1.60077,-0.07 -1.77531,-2.95098 0,-4.8069 l 12.24016,-10.35203 c 1.08508,-0.82957 0.40974,-1.51831 -1.0855,-2.14146 m 25.38567,-17.95529 v 8.31531 h -0.91338 v 4.37849 h 0.91338 v 5.26149 h -19.65145 -5.73422 -1.63068 c -1.93702,-0.35202 -2.10707,-2.27322 -1.018,-3.00432 l 13.56822,-12.71244 c 1.14676,-1.07444 1.87496,-2.23423 0.47962,-2.29558 m -1.06486,-3.22265 c -0.93391,0.71581 -1.08254,3.18625 1.06486,3.22265 l 1.06475,0.018 2.29785,0.039 h 10.63974 v -3.91293 h -0.92888 v -4.37848 h 0.92888 v -12.77917 z"
         style="opacity:1;vector-effect:none;fill:none;fill-opacity:1;fill-rule:evenodd;stroke:#000000;stroke-width:0.1;stroke-linecap:round;stroke-linejoin:round;stroke-miterlimit:4;stroke-dasharray:none;stroke-dashoffset:0;stroke-opacity:1"
         id="path1650-9-9-6" />
      <path
         sodipodi:nodetypes="ccc"
         inkscape:connector-curvature="0"
         id="path1821-9-5-8"
         d="m -594.65724,204.60239 v 14.47811 l -0.7585,21.12347"
         style="opacity:1;vector-effect:none;fill:none;fill-opacity:1;fill-rule:evenodd;stroke:#000000;stroke-width:0.1;stroke-linecap:round;stroke-linejoin:round;stroke-miterlimit:4;stroke-dasharray:none;stroke-dashoffset:0;stroke-opacity:1" />
      <path
         sodipodi:nodetypes="ccc"
         inkscape:connector-curvature="0"
         id="path1823-4-4-2"
         d="m -592.62855,204.60239 v 14.47811 l 1.05833,21.12347"
         style="opacity:1;vector-effect:none;fill:none;fill-opacity:1;fill-rule:evenodd;stroke:#000000;stroke-width:0.1;stroke-linecap:round;stroke-linejoin:round;stroke-miterlimit:4;stroke-dasharray:none;stroke-dashoffset:0;stroke-opacity:1" />
      <path
         transform="translate(-456.57322,-50.916404)"
         d="m -136.94141,156.98828 c -0.4733,0.003 -0.93473,0.28475 -1.15234,0.70508 l -2.83008,5.46289 a 1.5774642,1.5774642 0 0 1 -1.15234,0.83398 l -5.95508,0.94727 c -0.95757,0.15237 -1.39845,1.57064 -0.69531,2.23828 l 4.33203,4.11133 a 1.5774642,1.5774642 0 0 1 0.47265,1.39062 l -0.93164,5.89844 c -0.15055,0.95651 1.05974,1.8129 1.91211,1.35352 l 5.26172,-2.83399 a 1.5774642,1.5774642 0 0 1 1.4961,0 l 5.26562,2.83399 c 0.85172,0.45811 2.05836,-0.39825 1.91016,-1.35352 v -0.002 l -0.93164,-5.89649 a 1.5774642,1.5774642 0 0 1 0.47265,-1.39062 l 4.33008,-4.11133 c 0.70314,-0.66764 0.26226,-2.08591 -0.69531,-2.23828 l -5.95508,-0.94727 a 1.5774642,1.5774642 0 0 1 -1.15234,-0.83398 l -2.83008,-5.46289 c -0.22059,-0.42609 -0.69208,-0.70872 -1.17188,-0.70508 z"
         id="path1832-1-4-8-1-2-3"
         style="opacity:1;vector-effect:none;fill:#ff00ff;fill-opacity:1;fill-rule:evenodd;stroke:#ff00ff;stroke-width:0.1;stroke-linecap:round;stroke-linejoin:round;stroke-miterlimit:4;stroke-dasharray:none;stroke-dashoffset:0;stroke-opacity:1"
         inkscape:original="M -136.95312 155.41016 A 2.8850684 2.8850684 0 0 0 -139.49414 156.96875 L -142.32422 162.43164 L -148.2793 163.37891 A 2.8850684 2.8850684 0 0 0 -149.8125 168.32031 L -145.48047 172.43164 L -146.41211 178.33008 A 2.8850684 2.8850684 0 0 0 -142.19336 181.31836 L -136.93164 178.48438 L -131.66602 181.31836 A 2.8850684 2.8850684 0 0 0 -127.44922 178.33008 L -128.38086 172.43164 L -124.05078 168.32031 A 2.8850684 2.8850684 0 0 0 -125.58398 163.37891 L -131.53906 162.43164 L -134.36914 156.96875 A 2.8850684 2.8850684 0 0 0 -136.95312 155.41016 z "
         inkscape:radius="-1.5773065"
         sodipodi:type="inkscape:offset" />
      <circle
         r="2.2"
         cy="141.52151"
         cx="-598.242"
         id="path1960-37-6"
         style="opacity:1;vector-effect:none;fill:#ff00ff;fill-opacity:1;fill-rule:evenodd;stroke:#ff00ff;stroke-width:0.1;stroke-linecap:round;stroke-linejoin:round;stroke-miterlimit:4;stroke-dasharray:none;stroke-dashoffset:0;stroke-opacity:1" />
      <circle
         r="2.2"
         cy="147.06239"
         cx="-584.27216"
         id="path1960-9-6-4"
         style="opacity:1;vector-effect:none;fill:#ff00ff;fill-opacity:1;fill-rule:evenodd;stroke:#ff00ff;stroke-width:0.1;stroke-linecap:round;stroke-linejoin:round;stroke-miterlimit:4;stroke-dasharray:none;stroke-dashoffset:0;stroke-opacity:1" />
      <circle
         r="2.2"
         cy="148.53238"
         cx="-603.64923"
         id="path1960-1-9-2"
         style="opacity:1;vector-effect:none;fill:#ff00ff;fill-opacity:1;fill-rule:evenodd;stroke:#ff00ff;stroke-width:0.1;stroke-linecap:round;stroke-linejoin:round;stroke-miterlimit:4;stroke-dasharray:none;stroke-dashoffset:0;stroke-opacity:1" />
      <circle
         r="2.2"
         cy="138.91066"
         cx="-589.75122"
         id="path1960-5-7-3"
         style="opacity:1;vector-effect:none;fill:#ff00ff;fill-opacity:1;fill-rule:evenodd;stroke:#ff00ff;stroke-width:0.1;stroke-linecap:round;stroke-linejoin:round;stroke-miterlimit:4;stroke-dasharray:none;stroke-dashoffset:0;stroke-opacity:1" />
      <circle
         r="2.2"
         cy="156.55046"
         cx="-587.07849"
         id="path1960-3-2-6"
         style="opacity:1;vector-effect:none;fill:#ff00ff;fill-opacity:1;fill-rule:evenodd;stroke:#ff00ff;stroke-width:0.1;stroke-linecap:round;stroke-linejoin:round;stroke-miterlimit:4;stroke-dasharray:none;stroke-dashoffset:0;stroke-opacity:1" />
      <circle
         r="2.2"
         cy="161.36131"
         cx="-579.06042"
         id="path1960-7-2-1"
         style="opacity:1;vector-effect:none;fill:#ff00ff;fill-opacity:1;fill-rule:evenodd;stroke:#ff00ff;stroke-width:0.1;stroke-linecap:round;stroke-linejoin:round;stroke-miterlimit:4;stroke-dasharray:none;stroke-dashoffset:0;stroke-opacity:1" />
      <circle
         r="2.2"
         cy="165.90489"
         cx="-587.47943"
         id="path1960-79-9-9"
         style="opacity:1;vector-effect:none;fill:#ff00ff;fill-opacity:1;fill-rule:evenodd;stroke:#ff00ff;stroke-width:0.1;stroke-linecap:round;stroke-linejoin:round;stroke-miterlimit:4;stroke-dasharray:none;stroke-dashoffset:0;stroke-opacity:1" />
      <circle
         r="2.2"
         cy="166.57306"
         cx="-570.77509"
         id="path1960-76-1-1"
         style="opacity:1;vector-effect:none;fill:#ff00ff;fill-opacity:1;fill-rule:evenodd;stroke:#ff00ff;stroke-width:0.1;stroke-linecap:round;stroke-linejoin:round;stroke-miterlimit:4;stroke-dasharray:none;stroke-dashoffset:0;stroke-opacity:1" />
      <circle
         r="2.2"
         cy="156.41682"
         cx="-599.10565"
         id="path1960-2-2-1"
         style="opacity:1;vector-effect:none;fill:#ff00ff;fill-opacity:1;fill-rule:evenodd;stroke:#ff00ff;stroke-width:0.1;stroke-linecap:round;stroke-linejoin:round;stroke-miterlimit:4;stroke-dasharray:none;stroke-dashoffset:0;stroke-opacity:1" />
      <circle
         r="2.2"
         cy="166.17216"
         cx="-598.30383"
         id="path1960-71-7-0"
         style="opacity:1;vector-effect:none;fill:#ff00ff;fill-opacity:1;fill-rule:evenodd;stroke:#ff00ff;stroke-width:0.1;stroke-linecap:round;stroke-linejoin:round;stroke-miterlimit:4;stroke-dasharray:none;stroke-dashoffset:0;stroke-opacity:1" />
      <circle
         r="2.2"
         cy="165.37035"
         cx="-615.00818"
         id="path1960-25-3-1"
         style="opacity:1;vector-effect:none;fill:#ff00ff;fill-opacity:1;fill-rule:evenodd;stroke:#ff00ff;stroke-width:0.1;stroke-linecap:round;stroke-linejoin:round;stroke-miterlimit:4;stroke-dasharray:none;stroke-dashoffset:0;stroke-opacity:1" />
      <circle
         r="2.2"
         cy="161.49493"
         cx="-606.58917"
         id="path1960-0-2-2"
         style="opacity:1;vector-effect:none;fill:#ff00ff;fill-opacity:1;fill-rule:evenodd;stroke:#ff00ff;stroke-width:0.1;stroke-linecap:round;stroke-linejoin:round;stroke-miterlimit:4;stroke-dasharray:none;stroke-dashoffset:0;stroke-opacity:1" />
      <circle
         r="2.2"
         cy="182.07471"
         cx="-609.12823"
         id="path1960-12-4-7"
         style="opacity:1;vector-effect:none;fill:#ff00ff;fill-opacity:1;fill-rule:evenodd;stroke:#ff00ff;stroke-width:0.1;stroke-linecap:round;stroke-linejoin:round;stroke-miterlimit:4;stroke-dasharray:none;stroke-dashoffset:0;stroke-opacity:1" />
      <circle
         r="2.2"
         cy="174.45752"
         cx="-613.27094"
         id="path1960-03-9-4"
         style="opacity:1;vector-effect:none;fill:#ff00ff;fill-opacity:1;fill-rule:evenodd;stroke:#ff00ff;stroke-width:0.1;stroke-linecap:round;stroke-linejoin:round;stroke-miterlimit:4;stroke-dasharray:none;stroke-dashoffset:0;stroke-opacity:1" />
      <circle
         r="2.2"
         cy="174.72479"
         cx="-600.57562"
         id="path1960-4-3-5"
         style="opacity:1;vector-effect:none;fill:#ff00ff;fill-opacity:1;fill-rule:evenodd;stroke:#ff00ff;stroke-width:0.1;stroke-linecap:round;stroke-linejoin:round;stroke-miterlimit:4;stroke-dasharray:none;stroke-dashoffset:0;stroke-opacity:1" />
      <circle
         r="2.2"
         cy="182.74287"
         cx="-623.82806"
         id="path1960-41-4-1"
         style="opacity:1;vector-effect:none;fill:#ff00ff;fill-opacity:1;fill-rule:evenodd;stroke:#ff00ff;stroke-width:0.1;stroke-linecap:round;stroke-linejoin:round;stroke-miterlimit:4;stroke-dasharray:none;stroke-dashoffset:0;stroke-opacity:1" />
      <circle
         r="2.2"
         cy="184.07921"
         cx="-598.43744"
         id="path1960-04-1-5"
         style="opacity:1;vector-effect:none;fill:#ff00ff;fill-opacity:1;fill-rule:evenodd;stroke:#ff00ff;stroke-width:0.1;stroke-linecap:round;stroke-linejoin:round;stroke-miterlimit:4;stroke-dasharray:none;stroke-dashoffset:0;stroke-opacity:1" />
      <circle
         r="2.2"
         cy="174.19025"
         cx="-587.21216"
         id="path1960-43-8-3"
         style="opacity:1;vector-effect:none;fill:#ff00ff;fill-opacity:1;fill-rule:evenodd;stroke:#ff00ff;stroke-width:0.1;stroke-linecap:round;stroke-linejoin:round;stroke-miterlimit:4;stroke-dasharray:none;stroke-dashoffset:0;stroke-opacity:1" />
      <circle
         r="2.2"
         cy="182.47562"
         cx="-572.11139"
         id="path1960-94-1-2"
         style="opacity:1;vector-effect:none;fill:#ff00ff;fill-opacity:1;fill-rule:evenodd;stroke:#ff00ff;stroke-width:0.1;stroke-linecap:round;stroke-linejoin:round;stroke-miterlimit:4;stroke-dasharray:none;stroke-dashoffset:0;stroke-opacity:1" />
      <circle
         r="2.2"
         cy="174.59116"
         cx="-572.11139"
         id="path1960-91-8-2"
         style="opacity:1;vector-effect:none;fill:#ff00ff;fill-opacity:1;fill-rule:evenodd;stroke:#ff00ff;stroke-width:0.1;stroke-linecap:round;stroke-linejoin:round;stroke-miterlimit:4;stroke-dasharray:none;stroke-dashoffset:0;stroke-opacity:1" />
      <circle
         r="2.2"
         cy="181.80742"
         cx="-563.2915"
         id="path1960-31-7-8"
         style="opacity:1;vector-effect:none;fill:#ff00ff;fill-opacity:1;fill-rule:evenodd;stroke:#ff00ff;stroke-width:0.1;stroke-linecap:round;stroke-linejoin:round;stroke-miterlimit:4;stroke-dasharray:none;stroke-dashoffset:0;stroke-opacity:1" />
      <circle
         r="2.2"
         cy="183.67831"
         cx="-583.06946"
         id="path1960-33-7-7"
         style="opacity:1;vector-effect:none;fill:#ff00ff;fill-opacity:1;fill-rule:evenodd;stroke:#ff00ff;stroke-width:0.1;stroke-linecap:round;stroke-linejoin:round;stroke-miterlimit:4;stroke-dasharray:none;stroke-dashoffset:0;stroke-opacity:1" />
      <circle
         r="2.2"
         cy="191.56277"
         cx="-618.34906"
         id="path1960-047-6-3"
         style="opacity:1;vector-effect:none;fill:#ff00ff;fill-opacity:1;fill-rule:evenodd;stroke:#ff00ff;stroke-width:0.1;stroke-linecap:round;stroke-linejoin:round;stroke-miterlimit:4;stroke-dasharray:none;stroke-dashoffset:0;stroke-opacity:1" />
      <circle
         r="2.2"
         cy="199.3136"
         cx="-614.47363"
         id="path1960-51-7-9"
         style="opacity:1;vector-effect:none;fill:#ff00ff;fill-opacity:1;fill-rule:evenodd;stroke:#ff00ff;stroke-width:0.1;stroke-linecap:round;stroke-linejoin:round;stroke-miterlimit:4;stroke-dasharray:none;stroke-dashoffset:0;stroke-opacity:1" />
      <circle
         r="2.2"
         cy="200.24902"
         cx="-630.10889"
         id="path1960-77-6-4"
         style="opacity:1;vector-effect:none;fill:#ff00ff;fill-opacity:1;fill-rule:evenodd;stroke:#ff00ff;stroke-width:0.1;stroke-linecap:round;stroke-linejoin:round;stroke-miterlimit:4;stroke-dasharray:none;stroke-dashoffset:0;stroke-opacity:1" />
      <circle
         r="2.2"
         cy="192.49823"
         cx="-606.18829"
         id="path1960-514-0-5"
         style="opacity:1;vector-effect:none;fill:#ff00ff;fill-opacity:1;fill-rule:evenodd;stroke:#ff00ff;stroke-width:0.1;stroke-linecap:round;stroke-linejoin:round;stroke-miterlimit:4;stroke-dasharray:none;stroke-dashoffset:0;stroke-opacity:1" />
      <circle
         r="2.2"
         cy="199.84811"
         cx="-600.44196"
         id="path1960-40-7-1"
         style="opacity:1;vector-effect:none;fill:#ff00ff;fill-opacity:1;fill-rule:evenodd;stroke:#ff00ff;stroke-width:0.1;stroke-linecap:round;stroke-linejoin:round;stroke-miterlimit:4;stroke-dasharray:none;stroke-dashoffset:0;stroke-opacity:1" />
      <circle
         r="2.2"
         cy="191.83002"
         cx="-580.5304"
         id="path1960-49-5-3"
         style="opacity:1;vector-effect:none;fill:#ff00ff;fill-opacity:1;fill-rule:evenodd;stroke:#ff00ff;stroke-width:0.1;stroke-linecap:round;stroke-linejoin:round;stroke-miterlimit:4;stroke-dasharray:none;stroke-dashoffset:0;stroke-opacity:1" />
      <circle
         r="2.2"
         cy="191.2955"
         cx="-568.77057"
         id="path1960-05-0-9"
         style="opacity:1;vector-effect:none;fill:#ff00ff;fill-opacity:1;fill-rule:evenodd;stroke:#ff00ff;stroke-width:0.1;stroke-linecap:round;stroke-linejoin:round;stroke-miterlimit:4;stroke-dasharray:none;stroke-dashoffset:0;stroke-opacity:1" />
      <circle
         r="2.2"
         cy="200.5163"
         cx="-571.44324"
         id="path1960-6-3-6"
         style="opacity:1;vector-effect:none;fill:#ff00ff;fill-opacity:1;fill-rule:evenodd;stroke:#ff00ff;stroke-width:0.1;stroke-linecap:round;stroke-linejoin:round;stroke-miterlimit:4;stroke-dasharray:none;stroke-dashoffset:0;stroke-opacity:1" />
      <circle
         r="2.2"
         cy="200.64993"
         cx="-558.48065"
         id="path1960-62-1-2"
         style="opacity:1;vector-effect:none;fill:#ff00ff;fill-opacity:1;fill-rule:evenodd;stroke:#ff00ff;stroke-width:0.1;stroke-linecap:round;stroke-linejoin:round;stroke-miterlimit:4;stroke-dasharray:none;stroke-dashoffset:0;stroke-opacity:1" />
      <circle
         r="2.2"
         cy="200.24902"
         cx="-585.34125"
         id="path1960-042-1-4"
         style="opacity:1;vector-effect:none;fill:#ff00ff;fill-opacity:1;fill-rule:evenodd;stroke:#ff00ff;stroke-width:0.1;stroke-linecap:round;stroke-linejoin:round;stroke-miterlimit:4;stroke-dasharray:none;stroke-dashoffset:0;stroke-opacity:1" />
      <path
         inkscape:connector-curvature="0"
         id="path2926-1"
         d="m -593.49275,127.66035 c 0.57995,-3e-5 1.0501,0.47012 1.05006,1.05007 -2.5e-4,0.57975 -0.47031,1.04958 -1.05006,1.04955 -0.57975,3e-5 -1.04981,-0.4698 -1.05007,-1.04955 -3e-5,-0.57995 0.47012,-1.0501 1.05007,-1.05007 z"
         style="opacity:1;vector-effect:none;fill:none;fill-opacity:1;fill-rule:evenodd;stroke:#000000;stroke-width:0.1;stroke-linecap:round;stroke-linejoin:round;stroke-miterlimit:4;stroke-dasharray:none;stroke-dashoffset:0;stroke-opacity:1" />
      <path
         sodipodi:nodetypes="ccccccccsccccccccsscccccccccccccscccccccccccc"
         inkscape:connector-curvature="0"
         d="m -592.75815,187.22636 0.0587,6.2736 h 0.91746 v 4.37847 h -0.92037 l 0.0738,6.72398 h 44.2657 c 0.5868,-0.59246 0.64563,-3.39893 -0.9631,-4.90865 -2.38261,-2.2361 -8.53553,-8.02594 -10.96865,-10.46073 -1.10867,-1.10943 0.40188,-2.16925 0.90545,-1.97557 m -33.36901,-17.33149 v 6.96709 h 0.97618 v 4.37849 h -0.97618 v 5.95481 h 29.54122 c 0,0 2.26131,0.0238 3.82779,0.0311 1.20961,0.006 2.49108,0.001 3.23412,-0.0311 1.60077,-0.07 1.77531,-2.95098 0,-4.8069 l -12.24016,-10.35203 c -1.08508,-0.82957 -0.40974,-1.51831 1.0855,-2.14146 m -25.38567,-17.95529 v 8.31531 h 0.91338 v 4.37849 h -0.91338 v 5.26149 h 19.65145 5.73422 1.63068 c 1.93702,-0.35202 2.10707,-2.27322 1.018,-3.00432 l -13.56822,-12.71244 c -1.14676,-1.07444 -1.87496,-2.23423 -0.47962,-2.29558 m 1.06486,-3.22265 c 0.93391,0.71581 1.08254,3.18625 -1.06486,3.22265 l -1.06475,0.018 -2.29785,0.039 h -10.63974 v -3.91293 h 0.92888 v -4.37848 h -0.92888 v -12.77917 z"
         style="opacity:1;vector-effect:none;fill:none;fill-opacity:1;fill-rule:evenodd;stroke:#000000;stroke-width:0.1;stroke-linecap:round;stroke-linejoin:round;stroke-miterlimit:4;stroke-dasharray:none;stroke-dashoffset:0;stroke-opacity:1"
         id="path1650-9-9-6-4" />
      <path
         sodipodi:nodetypes="ccccscccccccccccccccccccccccccccccccccccccccccccccccccccccccccscccccc"
         inkscape:connector-curvature="0"
         d="m -609.51087,240.20397 c -1.92291,0.10506 -2.52681,-3.01091 0,-3.25513 v -9.6 h -2.03708 c 0,0 0.30483,-8.19742 8.01088,-8.19742 h 0.47491 v -9.75652 h -34.97875 c -2.54162,3e-4 -4.60205,-1.53098 -4.60178,-4.07262 v -4.00544 c 10e-5,-1.12971 0.41578,-2.21989 1.16788,-3.06286 l 7.30341,-7.13777 c 0,0 0.91893,-0.63379 0.11441,-1.65435 -0.51054,-0.75247 -0.79241,-0.58911 -0.79341,-1.5163 v -4.80642 c 3e-5,-1.45922 0.69224,-2.83193 1.86551,-3.69952 l 6.80273,-5.0322 c 0,0 0.99831,-0.59347 0.31829,-1.72394 -0.31248,-0.62887 -0.47959,-1.32585 -0.48059,-2.03867 v -3.00395 c 1.4e-4,-1.42285 0.65854,-2.76559 1.78335,-3.63699 l 10.64509,-9.79334 c 0,0 0.68621,-0.74318 0.55474,-1.59511 v -3.20497 c 10e-5,-1.30438 0.55382,-2.54742 1.52342,-3.41995 l 13.31909,-15.72514 -0.23565,0.12713 c -2.10082,1.1323 -4.58966,-0.63038 -4.21886,-2.98793 l 0.93172,-5.89887 -4.33203,-4.11137 c -1.73355,-1.6462 -0.82769,-4.5656 1.53324,-4.94131 l 5.95519,-0.94722 2.8298,-5.46272 c 0.49221,-0.95072 1.47039,-1.55056 2.49384,-1.55855 1.02345,0.008 2.00163,0.60784 2.49384,1.55856 l 2.8298,5.46272 5.95519,0.94722 c 2.36093,0.37571 3.26679,3.29511 1.53324,4.94131 l -4.33203,4.11137 0.93172,5.89887 c 0.3708,2.35755 -2.11804,4.12023 -4.21886,2.98793 l -0.23565,-0.12713 13.31909,15.72514 c 0.9696,0.87253 1.52332,2.11557 1.52342,3.41995 v 3.20497 c -0.13147,0.85193 0.55474,1.59511 0.55474,1.59511 l 10.64509,9.79334 c 1.12481,0.8714 1.78321,2.21414 1.78335,3.63699 v 3.00395 c -10e-4,0.71282 -0.16811,1.4098 -0.48059,2.03867 -0.68002,1.13047 0.31829,1.72394 0.31829,1.72394 l 6.80273,5.0322 c 1.17327,0.86759 1.86548,2.2403 1.86551,3.69952 v 4.80642 c -10e-4,0.92719 -0.28287,0.76383 -0.79341,1.5163 -0.80452,1.02056 0.11441,1.65435 0.11441,1.65435 l 7.30341,7.13777 c 0.7521,0.84297 1.16778,1.93314 1.16788,3.06285 v 4.00544 c 2.7e-4,2.54164 -2.06016,4.07292 -4.60178,4.07262 h -34.97875 v 9.75653 h 0.47491 c 7.70605,0 8.01088,8.19741 8.01088,8.19741 h -2.03708 v 9.60001 c 2.52681,0.24421 1.92291,3.36019 0,3.25512 h -15.94935 z"
         style="opacity:1;vector-effect:none;fill:none;fill-opacity:1;fill-rule:evenodd;stroke:#000000;stroke-width:0.1;stroke-linecap:round;stroke-linejoin:round;stroke-miterlimit:4;stroke-dasharray:none;stroke-dashoffset:0;stroke-opacity:1"
         id="path3948-8" />
    </g>
  </g>
</svg>
